# xmcd CD database file
#
# Track frame offsets:
#	150
#	17175
#	37342
#	58737
#	75937
#	94442
#	114025
#	128942
#	149222
#	176335
#	200945
#	216640
#	234132
#	256425
#	279140
#	300117
#
# Disc length: 4283 seconds
#
# Revision: 0
# Processed by: cddbd v1.5.1PL2 Copyright (c) Steve Scherf et al.
# Submitted via: CDex 1.50
#
DISCID=e610b910
DTITLE=J-DISK Being - COUNTDOWN BEING Disk 2
DYEAR=2005
DGENRE=J-Pop
TTITLE0=負けないで
TTITLE1=刹那さを消せやしない
TTITLE2=あなただけを見つめてる
TTITLE3=君が好きだと叫びたい
TTITLE4=時の扉
TTITLE5=甘い Kiss Kiss
TTITLE6=ギンギラパラダイス
TTITLE7=愛を語るより口づけをかわそう
TTITLE8=ALONE
TTITLE9=Just believe in love
TTITLE10=恋は舞い降りた
TTITLE11=ブルーライト　ヨコスカ
TTITLE12=離したくはない
TTITLE13=光と影の中で
TTITLE14=このまま君だけを奪い去りたい
TTITLE15=永遠の夢に向かって
EXTD=YEAR: 2005
EXTT0=
EXTT1=
EXTT2=
EXTT3=
EXTT4=
EXTT5=
EXTT6=
EXTT7=
EXTT8=
EXTT9=
EXTT10=
EXTT11=
EXTT12=
EXTT13=
EXTT14=
EXTT15=
PLAYORDER=
